<svg xmlns="http://www.w3.org/2000/svg" version="1.1" xmlns:xlink="http://www.w3.org/1999/xlink" viewBox="0 0 200 200" width="200" height="200"><metadata><rdf:RDF xmlns:rdf="http://www.w3.org/1999/02/22-rdf-syntax-ns#" xmlns:dc="http://purl.org/dc/elements/1.1/"><rdf:Description><dc:creator>RealFaviconGenerator</dc:creator><dc:source>https://realfavicongenerator.net</dc:source></rdf:Description></rdf:RDF></metadata><rect width="200" height="200" fill="url('#gradient')"></rect><defs><linearGradient id="gradient" gradientTransform="rotate(45 0.5 0.5)"><stop offset="0%" stop-color="#393ba3"></stop><stop offset="100%" stop-color="#211c36"></stop></linearGradient></defs><g><g fill="#fdfdfd" transform="matrix(8.520501253132831,0,0,8.520501253132831,74.13816688322484,146.6107695032182)" stroke="#a8dc9f" stroke-width="0"><path d="M4.55-11.38L4.55 0.24Q4.55 2.20 3.51 3.23Q2.47 4.27 0.56 4.27L0.56 4.27Q-0.28 4.27-1.00 4.10L-1.00 4.10L-0.85 1.61Q-0.42 1.73 0.02 1.73L0.02 1.73Q1.22 1.73 1.26 0.36L1.26 0.36L1.26-11.42Q1.26-13.23 2.33-14.22Q3.41-15.21 5.43-15.21L5.43-15.21Q6.09-15.21 7.07-15.01L7.07-15.01L6.84-12.58Q6.37-12.68 5.84-12.68L5.84-12.68Q4.55-12.68 4.55-11.38L4.55-11.38Z"></path></g></g></svg>